<?xml version="1.0" encoding="utf-8"?>
<!-- Generator: Adobe Illustrator 23.1.1, SVG Export Plug-In . SVG Version: 6.00 Build 0)  -->
<svg version="1.1" id="Слой_1" xmlns="http://www.w3.org/2000/svg" xmlns:xlink="http://www.w3.org/1999/xlink" x="0px" y="0px"
	 viewBox="0 0 800 800" style="enable-background:new 0 0 800 800;" xml:space="preserve">
<style type="text/css">
	.st0{fill:#FFFFFF;}
</style>
<path class="st0" d="M512.6,691.7H287.4c-33.5,0-51.9,0-69.5-7.7c-15.5-6.8-28.8-17.7-38.5-31.5c-11-15.7-14.6-33.8-21.2-66.6
	l-45.5-227.5H100c-13.8,0-25-11.2-25-25c0-13.8,11.2-25,25-25h32.9c0.3,0,0.7,0,1,0h50.7l93.1-186.2c6.2-12.3,21.2-17.4,33.5-11.2
	c12.3,6.2,17.4,21.2,11.2,33.5l-81.9,163.8h319.1l-81.9-163.8c-6.2-12.3-1.2-27.4,11.2-33.5c12.3-6.2,27.4-1.2,33.5,11.2l93.1,186.2
	h50.7c0.3,0,0.7,0,1,0H700c13.8,0,25,11.2,25,25c0,13.8-11.2,25-25,25h-12.8l-45.5,227.5c-6.6,32.9-10.2,50.9-21.1,66.6
	c-9.7,13.9-23,24.8-38.5,31.5C564.5,691.7,546,691.7,512.6,691.7z M163.8,358.3L207.4,576c5.2,26.2,8.1,40.7,13.1,47.8
	c4.4,6.3,10.4,11.3,17.5,14.3c8,3.5,22.7,3.5,49.5,3.5h225.1c26.8,0,41.5,0,49.5-3.5c7-3.1,13.1-8,17.5-14.3
	c5-7.1,7.9-21.6,13.1-47.8l43.5-217.7h-35.6c-0.4,0-0.7,0-1.1,0h-399c-0.4,0-0.7,0-1.1,0H163.8z M500,558.3c-13.8,0-25-11.2-25-25
	v-100c0-13.8,11.2-25,25-25s25,11.2,25,25v100C525,547.1,513.8,558.3,500,558.3z M400,558.3c-13.8,0-25-11.2-25-25v-100
	c0-13.8,11.2-25,25-25c13.8,0,25,11.2,25,25v100C425,547.1,413.8,558.3,400,558.3z M300,558.3c-13.8,0-25-11.2-25-25v-100
	c0-13.8,11.2-25,25-25s25,11.2,25,25v100C325,547.1,313.8,558.3,300,558.3z"/>
</svg>
