<?xml version="1.0" encoding="utf-8"?>
<!-- Generator: Adobe Illustrator 23.1.1, SVG Export Plug-In . SVG Version: 6.00 Build 0)  -->
<svg version="1.1" id="Слой_1" xmlns="http://www.w3.org/2000/svg" xmlns:xlink="http://www.w3.org/1999/xlink" x="0px" y="0px"
	 viewBox="0 0 800 800" style="enable-background:new 0 0 800 800;" xml:space="preserve">
<style type="text/css">
	.st0{fill:#FFFFFF;}
</style>
<path class="st0" d="M680.8,119.2c-12.6-12.6-33-12.6-45.6,0L400,354.4L164.8,119.2c-12.6-12.6-33-12.6-45.6,0
	c-12.6,12.6-12.6,33,0,45.6L354.4,400L119.2,635.2c-12.6,12.6-12.6,33,0,45.6c12.6,12.6,33,12.6,45.6,0L400,445.6l235.2,235.2
	c12.6,12.6,33,12.6,45.6,0c12.6-12.6,12.6-33,0-45.6L445.6,400l235.2-235.2C693.4,152.2,693.4,131.8,680.8,119.2z"/>
</svg>
